<?xml version="1.0" standalone="no"?>
<!DOCTYPE svg PUBLIC "-//W3C//DTD SVG 20010904//EN"
 "http://www.w3.org/TR/2001/REC-SVG-20010904/DTD/svg10.dtd">
<svg version="1.0" xmlns="http://www.w3.org/2000/svg"
 width="300.000000pt" height="300.000000pt" viewBox="0 0 300.000000 300.000000"
 preserveAspectRatio="xMidYMid meet">
<metadata>
Created by potrace 1.11, written by Peter Selinger 2001-2013
</metadata>
<g transform="translate(0.000000,300.000000) scale(0.100000,-0.100000)"
fill="#000000" stroke="none">
<path d="M1295 2884 c-182 -32 -381 -113 -545 -222 -110 -74 -289 -252 -361
-362 -115 -172 -192 -365 -224 -554 -21 -125 -21 -331 -1 -458 76 -468 400
-877 840 -1058 50 -21 104 -41 120 -44 l30 -7 -42 44 c-22 25 -54 72 -70 104
-23 45 -39 62 -68 77 -136 64 -327 226 -433 366 -107 142 -200 358 -232 540
-21 118 -16 326 10 450 26 121 84 276 139 370 42 74 42 70 23 127 -14 41 -13
43 20 98 132 218 409 405 711 481 142 36 379 44 529 19 303 -50 560 -191 742
-405 65 -77 120 -167 111 -182 -21 -33 -13 -78 25 -144 309 -538 159 -1238
-344 -1610 -44 -32 -112 -76 -150 -96 -62 -32 -73 -43 -99 -92 -15 -30 -50
-78 -78 -105 l-49 -50 58 18 c218 68 409 187 580 364 174 180 290 389 348 630
33 135 49 319 37 427 l-9 85 -2 -117 c0 -64 -5 -119 -10 -122 -10 -6 -21 50
-21 109 0 22 -9 57 -20 77 -26 50 -114 498 -97 498 4 0 13 -12 21 -27 8 -16
15 -23 16 -18 0 15 -85 160 -137 234 -68 94 -194 223 -293 297 -163 123 -398
224 -599 258 -117 20 -364 20 -476 0z"/>
<path d="M1445 2563 c17 -40 17 -188 1 -253 -49 -189 -183 -367 -416 -552 -69
-54 -142 -120 -164 -146 -84 -103 -122 -223 -113 -362 17 -256 191 -473 456
-570 79 -29 191 -50 191 -36 0 4 -16 32 -35 62 -196 306 -192 519 14 725 42
41 105 95 140 118 l63 43 -6 -48 c-15 -110 44 -257 160 -399 36 -44 74 -97 84
-117 35 -65 24 -150 -37 -301 -19 -48 -34 -90 -31 -92 9 -10 146 27 206 55
168 79 342 253 404 405 46 112 54 229 24 344 -34 126 -127 280 -245 404 l-55
58 -78 -78 c-42 -42 -80 -75 -83 -72 -3 3 -1 39 5 80 22 173 7 301 -48 403
-58 108 -204 232 -369 315 -72 36 -78 37 -68 14z"/>
</g>
</svg>
